<svg id="Layer_1" data-name="Layer 1" xmlns="http://www.w3.org/2000/svg" viewBox="0 0 512 512"><defs><style>.cls-1{fill:#fff;}</style></defs><title>beta</title><rect width="512" height="512"/><path class="cls-1" d="M120.37,274.14V40.34h60.87V87.16h45.35q30.43,0,30.44,23.7V251q0,23.13-30.44,23.12Zm75.79-139.58a.51.51,0,0,0-.58-.58H181.24v93.63h14.34a.51.51,0,0,0,.58-.58Z"/><path class="cls-1" d="M301.79,274.14q-30.43,0-30.43-23.12V110.86q0-23.7,30.43-23.7h75.79q30.44,0,30.43,23.7v93.35H332.23V227a.51.51,0,0,0,.58.58h13.75a.52.52,0,0,0,.59-.58V215.91H408V251q0,23.13-30.43,23.12Zm45.36-139.58a.52.52,0,0,0-.59-.58H332.81a.51.51,0,0,0-.58.58v26h14.92Z"/><path class="cls-1" d="M149.34,471.66q-30.43,0-30.43-23.12V342.91H104V296.68h14.92v-12h60.86v12h75.79v46.23H179.77v81.64a.52.52,0,0,0,.59.59h14a.52.52,0,0,0,.59-.59V354.91h60.57v93.63q0,23.13-30.43,23.12Z"/><path class="cls-1" d="M300.33,471.66q-30.43,0-30.43-23.12V378q0-23.11,30.43-23.11h45.36V332.08a.52.52,0,0,0-.59-.58H331.35a.52.52,0,0,0-.59.58v10.83H269.9V308.38q0-23.7,30.43-23.7h75.79q30.44,0,30.43,23.7V471.66Zm45.36-75.79H331.35a.52.52,0,0,0-.59.59v28.09a.52.52,0,0,0,.59.59h14.34Z"/></svg>